HIERARCHY
ROOT Hips
{
	OFFSET 0.000000 0.000000 0.000000
	CHANNELS 6 Xposition Yposition Zposition Zrotation Yrotation Xrotation 
	JOINT LowerBack
	{
		OFFSET 0.000000 0.000000 0.000000
		CHANNELS 3 Zrotation Yrotation Xrotation
		JOINT Spine
		{
			OFFSET 0.028270 2.035590 -0.193380
			CHANNELS 3 Zrotation Yrotation Xrotation
			JOINT Spine1
			{
				OFFSET 0.056720 2.048850 -0.042750
				CHANNELS 3 Zrotation Yrotation Xrotation
				JOINT Neck
				{
					OFFSET 0.000000 0.000000 0.000000
					CHANNELS 3 Zrotation Yrotation Xrotation
					JOINT Neck1
					{
						OFFSET -0.054170 1.746240 0.172020
						CHANNELS 3 Zrotation Yrotation Xrotation
						JOINT Head
						{
							OFFSET 0.104070 1.761360 -0.123970
							CHANNELS 3 Zrotation Yrotation Xrotation
							End Site
							{
								OFFSET 0.000000 0.000000 0.000000
							}
						}
					}
				}
				JOINT LeftShoulder
				{
					OFFSET 0.000000 0.000000 0.000000
					CHANNELS 3 Zrotation Yrotation Xrotation
					JOINT LeftArm
					{
						OFFSET 3.362410 1.200890 -0.311210
						CHANNELS 3 Zrotation Yrotation Xrotation
						JOINT LeftForeArm
						{
							OFFSET 4.983000 -0.000000 -0.000000
							CHANNELS 3 Zrotation Yrotation Xrotation
							JOINT LeftHand
							{
								OFFSET 3.483560 -0.000000 -0.000000
								CHANNELS 3 Zrotation Yrotation Xrotation
								JOINT LeftFingerBase
								{
									OFFSET 0.000000 0.000000 0.000000
									CHANNELS 3 Zrotation Yrotation Xrotation
									JOINT LeftHandIndex1
									{
										OFFSET 0.715260 -0.000000 -0.000000
										CHANNELS 3 Zrotation Yrotation Xrotation
										End Site
										{
											OFFSET 0.000000 0.000000 0.000000
										}
									}
								}
								JOINT LThumb
								{
									OFFSET 0.000000 0.000000 0.000000
									CHANNELS 3 Zrotation Yrotation Xrotation
									End Site
									{
										OFFSET 0.000000 0.000000 0.000000
									}
								}
							}
						}
					}
				}
				JOINT RightShoulder
				{
					OFFSET 0.000000 0.000000 0.000000
					CHANNELS 3 Zrotation Yrotation Xrotation
					JOINT RightArm
					{
						OFFSET -3.136600 1.374050 -0.404650
						CHANNELS 3 Zrotation Yrotation Xrotation
						JOINT RightForeArm
						{
							OFFSET -5.241900 -0.000000 -0.000000
							CHANNELS 3 Zrotation Yrotation Xrotation
							JOINT RightHand
							{
								OFFSET -3.444170 -0.000000 -0.000000
								CHANNELS 3 Zrotation Yrotation Xrotation
								JOINT RightFingerBase
								{
									OFFSET 0.000000 0.000000 0.000000
									CHANNELS 3 Zrotation Yrotation Xrotation
									JOINT RightHandIndex1
									{
										OFFSET -0.622530 -0.000000 -0.000000
										CHANNELS 3 Zrotation Yrotation Xrotation
										End Site
										{
											OFFSET 0.000000 0.000000 0.000000
										}
									}
								}
								JOINT RThumb
								{
									OFFSET 0.000000 0.000000 0.000000
									CHANNELS 3 Zrotation Yrotation Xrotation
									End Site
									{
										OFFSET 0.000000 0.000000 0.000000
									}
								}
							}
						}
					}
				}
			}
		}
	}
}
}
MOTION
Frames: 9
Frame Time: 0.008333
-3.841942 16.157440 0.382584 2.882774 79.963428 30.682034 -0.314188 0.840854 9.104337 -0.833973 1.043364 -1.266862 -5.478581 1.037378 -0.289992 7.756381 -5.457127 -5.454499 -1.804512 -0.145041 0.236768 0.000000 0.000000 0.000000 2.150905 13.326188 2.923766 -67.730240 24.455344 27.688568 -1.560714 -61.578457 -0.002578 -7.499406 7.360647 -0.488725 0.033489 -0.049640 0.000000 0.000000 0.000000 0.000000 0.000000 0.000000 0.000000 4.502881 0.294751 -1.359510 68.304095 11.056592 9.543043 179.867963 87.571156 179.985180 -2.519831 -0.654253 0.007201 0.029007 -0.352351 0.000000 0.000000 0.000000 0.000000 0.000000 0.000000 0.000000 
-3.696681 16.129703 0.396571 3.802408 79.836333 31.395667 -0.618576 0.800100 9.166550 -0.904308 1.005485 -1.268008 -5.518026 1.000687 -0.341278 7.846182 -5.376461 -5.424102 -1.820528 -0.146549 0.245392 0.000000 0.000000 0.000000 2.133004 13.048186 2.942187 -67.672410 24.034674 27.779436 -1.585227 -61.310754 -0.002636 -7.475572 7.370112 -0.487616 0.032019 -0.048963 0.000000 0.000000 0.000000 0.000000 0.000000 0.000000 0.000000 4.651921 0.359686 -1.327347 68.689465 10.647831 9.412255 179.883677 88.073332 179.985665 -2.447835 -0.434689 0.002204 0.026175 -0.354588 0.000000 0.000000 0.000000 0.000000 0.000000 0.000000 0.000000 
-3.553770 16.104245 0.412058 4.874448 79.714811 32.246477 -0.938927 0.758915 9.258755 -0.977110 0.967544 -1.263357 -5.552853 0.963877 -0.396459 7.923200 -5.275447 -5.377366 -1.837858 -0.148307 0.257531 0.000000 0.000000 0.000000 2.096958 12.733340 2.959849 -67.593708 23.520800 27.877195 -1.612546 -61.001861 -0.002678 -7.437099 7.368668 -0.484804 0.030191 -0.047890 0.000000 0.000000 0.000000 0.000000 0.000000 0.000000 0.000000 4.799326 0.436218 -1.293275 69.109127 10.223659 9.235093 179.903496 88.686914 179.985833 -2.426097 -0.207970 -0.002692 0.024086 -0.356572 0.000000 0.000000 0.000000 0.000000 0.000000 0.000000 0.000000 
-3.413114 16.081095 0.428647 6.009052 79.595367 33.146695 -1.260700 0.718719 9.376643 -1.049234 0.930689 -1.252878 -5.582550 0.928102 -0.451713 7.981937 -5.155282 -5.312696 -1.856655 -0.150355 0.273734 0.000000 0.000000 0.000000 2.037860 12.393153 2.974367 -67.495197 22.913737 27.977673 -1.642611 -60.651399 -0.002709 -7.384287 7.356481 -0.480389 0.028003 -0.046456 0.000000 0.000000 0.000000 0.000000 0.000000 0.000000 0.000000 4.941816 0.520927 -1.259017 69.558257 9.796563 9.022352 179.927369 89.423005 179.985669 -2.458978 0.019085 -0.007688 0.022876 -0.358019 0.000000 0.000000 0.000000 0.000000 0.000000 0.000000 0.000000 
-3.274564 16.060192 0.445900 7.120753 79.474331 34.012991 -1.570253 0.680298 9.515046 -1.117591 0.895450 -1.236100 -5.606262 0.893952 -0.500777 8.017986 -5.020438 -5.231202 -1.876797 -0.152673 0.293809 0.000000 0.000000 0.000000 1.954937 12.049182 2.983659 -67.380759 22.204765 28.082045 -1.675539 -60.254719 -0.002738 -7.316276 7.335213 -0.474271 0.025413 -0.044699 0.000000 0.000000 0.000000 0.000000 0.000000 0.000000 0.000000 5.076552 0.607039 -1.226922 70.030091 9.383493 8.788898 -0.044930 89.707913 -0.014815 -2.547494 0.239867 -0.012884 0.022630 -0.358639 0.000000 0.000000 0.000000 0.000000 0.000000 0.000000 0.000000 
-3.137882 16.041347 0.463291 8.131276 79.349192 34.769879 -1.855049 0.644278 9.667906 -1.179430 0.862244 -1.213394 -5.623733 0.861859 -0.539819 8.028189 -4.873845 -5.132804 -1.898321 -0.155276 0.317957 0.000000 0.000000 0.000000 1.845801 11.713329 2.985604 -67.256145 21.400540 28.178343 -1.710916 -59.815366 -0.002773 -7.230977 7.308897 -0.466749 0.022413 -0.042687 0.000000 0.000000 0.000000 0.000000 0.000000 0.000000 0.000000 5.201470 0.689977 -1.198165 70.517112 8.997110 8.548164 -0.013864 88.699831 -0.015579 -2.688331 0.448320 -0.018581 0.023361 -0.358189 0.000000 0.000000 0.000000 0.000000 0.000000 0.000000 0.000000 
-3.002813 16.024350 0.480409 8.981127 79.219067 35.360888 -2.105091 0.610533 9.828958 -1.232515 0.830801 -1.185132 -5.634752 0.831586 -0.564854 8.011195 -4.719931 -5.018949 -1.921152 -0.158145 0.345956 0.000000 0.000000 0.000000 1.710926 11.398605 2.978587 -67.129102 20.506314 28.254195 -1.748289 -59.336583 -0.002822 -7.124817 7.283466 -0.457925 0.018972 -0.040488 0.000000 0.000000 0.000000 0.000000 0.000000 0.000000 0.000000 5.315546 0.764114 -1.173615 71.010788 8.648815 8.313570 0.020035 87.549847 -0.016551 -2.874435 0.638948 -0.024677 0.025024 -0.356463 0.000000 0.000000 0.000000 0.000000 0.000000 0.000000 0.000000 
-2.869126 16.008923 0.496879 9.632771 79.084430 35.752014 -2.313562 0.578436 9.992133 -1.275370 0.800435 -1.151967 -5.639437 0.802464 -0.573214 7.967481 -4.562948 -4.891621 -1.945274 -0.161259 0.377415 0.000000 0.000000 0.000000 1.553354 11.113642 2.961585 -67.008729 19.531019 28.294410 -1.787005 -58.823865 -0.002895 -6.992328 7.265560 -0.447897 0.015059 -0.038161 0.000000 0.000000 0.000000 0.000000 0.000000 0.000000 0.000000 5.419165 0.824782 -1.153349 71.502234 8.346119 8.095962 0.056251 86.259618 -0.017642 -3.095807 0.807290 -0.031074 0.027517 -0.353327 0.000000 0.000000 0.000000 0.000000 0.000000 0.000000 0.000000 
-2.736659 15.994817 0.512414 10.071686 78.947613 35.932727 -2.476409 0.546888 10.151628 -1.307197 0.770055 -1.114860 -5.638245 0.773399 -0.563702 7.899541 -4.406668 -4.753300 -1.970724 -0.164588 0.411790 0.000000 0.000000 0.000000 1.378065 10.862692 2.934219 -66.904267 18.486321 28.281640 -1.826268 -58.284694 -0.003002 -6.826349 7.262527 -0.436666 0.010633 -0.035755 0.000000 0.000000 0.000000 0.000000 0.000000 0.000000 0.000000 5.514146 0.868656 -1.136756 71.983234 8.091708 7.902980 0.094383 84.836038 -0.018757 -3.340689 0.950390 -0.037673 0.030702 -0.348731 0.000000 0.000000 0.000000 0.000000 0.000000 0.000000 0.000000 
